<svg width="18" height="10" viewBox="0 0 18 10" fill="none" xmlns="http://www.w3.org/2000/svg">
<path d="M0.660095 6.56755L3.5626 9.50005C3.63232 9.57034 3.71527 9.62614 3.80666 9.66422C3.89806 9.70229 3.99609 9.7219 4.0951 9.7219C4.1941 9.7219 4.29213 9.70229 4.38353 9.66422C4.47492 9.62614 4.55787 9.57034 4.6276 9.50005C4.69789 9.43032 4.75369 9.34737 4.79176 9.25598C4.82984 9.16458 4.84944 9.06656 4.84944 8.96755C4.84944 8.86854 4.82984 8.77051 4.79176 8.67912C4.75369 8.58772 4.69789 8.50477 4.6276 8.43505L1.9576 5.75005H17.2501C17.449 5.75005 17.6398 5.67103 17.7804 5.53038C17.9211 5.38972 18.0001 5.19896 18.0001 5.00005C18.0001 4.80113 17.9211 4.61037 17.7804 4.46972C17.6398 4.32906 17.449 4.25005 17.2501 4.25005H1.9126L4.6276 1.53505C4.76056 1.39556 4.83474 1.21025 4.83474 1.01755C4.83474 0.824841 4.76056 0.639529 4.6276 0.500047C4.55787 0.429751 4.47492 0.373955 4.38353 0.335878C4.29213 0.297802 4.1941 0.278198 4.0951 0.278198C3.99609 0.278198 3.89806 0.297802 3.80666 0.335878C3.71527 0.373955 3.63232 0.429751 3.5626 0.500047L0.660095 3.38755C0.238744 3.80942 0.0020752 4.3813 0.0020752 4.97755C0.0020752 5.5738 0.238744 6.14567 0.660095 6.56755Z" fill="#EFEFEF"/>
</svg>
