<svg width="20" height="13" viewBox="0 0 20 13" fill="none" xmlns="http://www.w3.org/2000/svg">
<path fill-rule="evenodd" clip-rule="evenodd" d="M19.7 1.68199C19.7 1.04895 19.2224 0.535767 18.6333 0.535767H17.5667C16.9776 0.535767 16.5 1.04895 16.5 1.68199V11.616C16.5 12.249 16.9776 12.7622 17.5667 12.7622H18.6333C19.2224 12.7622 19.7 12.249 19.7 11.616V1.68199ZM12.2659 2.98105H13.3326C13.9217 2.98105 14.3992 3.50655 14.3992 4.15478V11.5884C14.3992 12.2367 13.9217 12.7622 13.3326 12.7622H12.2659C11.6768 12.7622 11.1992 12.2367 11.1992 11.5884V4.15478C11.1992 3.50655 11.6768 2.98105 12.2659 2.98105ZM7.93411 5.6301H6.86745C6.27834 5.6301 5.80078 6.16229 5.80078 6.81878V11.5735C5.80078 12.23 6.27834 12.7622 6.86745 12.7622H7.93411C8.52322 12.7622 9.00078 12.23 9.00078 11.5735V6.81878C9.00078 6.16229 8.52322 5.6301 7.93411 5.6301ZM2.63333 8.07539H1.56667C0.977563 8.07539 0.5 8.59998 0.5 9.24709V11.5905C0.5 12.2376 0.977563 12.7622 1.56667 12.7622H2.63333C3.22244 12.7622 3.7 12.2376 3.7 11.5905V9.24709C3.7 8.59998 3.22244 8.07539 2.63333 8.07539Z" fill="black"/>
</svg>
