<svg width="28" height="28" viewBox="0 0 28 28" fill="none" xmlns="http://www.w3.org/2000/svg">
<g clip-path="url(#clip0_909_9203)">
<path d="M26.3141 15.9389L24.0974 7.96359C23.4477 5.62715 22.0356 3.57493 20.0856 2.13314C18.1356 0.691352 15.7597 -0.0572589 13.3354 0.00630128C10.9112 0.0698614 8.5777 0.941945 6.70596 2.48393C4.83422 4.02592 3.53163 6.14931 3.00522 8.51659L1.28905 16.2341C1.09949 17.0868 1.10387 17.9713 1.30188 18.8221C1.49989 19.673 1.88646 20.4685 2.43307 21.1499C2.97967 21.8313 3.67234 22.3813 4.45995 22.7592C5.24756 23.1371 6.10998 23.3333 6.98355 23.3333H8.28322C8.55099 24.6519 9.26641 25.8375 10.3083 26.689C11.3501 27.5406 12.6543 28.0058 13.9999 28.0058C15.3455 28.0058 16.6497 27.5406 17.6915 26.689C18.7334 25.8375 19.4488 24.6519 19.7166 23.3333H20.6942C21.5935 23.3333 22.4806 23.1255 23.2863 22.7259C24.0919 22.3264 24.7943 21.746 25.3385 21.0301C25.8827 20.3142 26.2541 19.4821 26.4235 18.599C26.5929 17.7158 26.5559 16.8054 26.3152 15.9389H26.3141ZM13.9999 25.6666C13.2786 25.6636 12.5758 25.4378 11.9877 25.0202C11.3997 24.6025 10.955 24.0133 10.7146 23.3333H17.2852C17.0448 24.0133 16.6001 24.6025 16.012 25.0202C15.424 25.4378 14.7212 25.6636 13.9999 25.6666ZM23.4802 19.6174C23.1551 20.0487 22.7339 20.3982 22.2501 20.6382C21.7663 20.8782 21.2331 21.0021 20.6931 20.9999H6.98355C6.45947 20.9998 5.94209 20.882 5.46962 20.6553C4.99714 20.4285 4.58163 20.0985 4.25374 19.6896C3.92586 19.2808 3.69397 18.8035 3.57521 18.2931C3.45644 17.7826 3.45383 17.252 3.56755 16.7404L5.28255 9.02176C5.69597 7.16233 6.71908 5.49446 8.18925 4.28328C9.65943 3.0721 11.4923 2.38712 13.3965 2.33724C15.3006 2.28736 17.1668 2.87543 18.6984 4.00797C20.23 5.14051 21.339 6.75253 21.8492 8.58776L24.0659 16.5631C24.2124 17.0827 24.2357 17.6293 24.134 18.1595C24.0324 18.6897 23.8085 19.1889 23.4802 19.6174Z" fill="#EFEFEF"/>
</g>
<defs>
<clipPath id="clip0_909_9203">
<rect width="28" height="28" fill="white"/>
</clipPath>
</defs>
</svg>
