<svg width="16" height="16" viewBox="0 0 16 16" fill="none" xmlns="http://www.w3.org/2000/svg">
<g clip-path="url(#clip0_19_17777)">
<path d="M15.2192 6.11408L12.6332 3.52808C12.5075 3.40665 12.3391 3.33945 12.1643 3.34097C11.9895 3.34249 11.8223 3.4126 11.6987 3.5362C11.5751 3.65981 11.505 3.82702 11.5035 4.00182C11.5019 4.17661 11.5691 4.34502 11.6906 4.47075L14.2766 7.05675C14.3534 7.1351 14.4206 7.22239 14.4766 7.31675C14.4666 7.31675 14.4586 7.31142 14.4486 7.31142L3.99258 7.33275C3.81577 7.33275 3.6462 7.40299 3.52117 7.52801C3.39615 7.65304 3.32591 7.82261 3.32591 7.99942C3.32591 8.17623 3.39615 8.3458 3.52117 8.47082C3.6462 8.59585 3.81577 8.66608 3.99258 8.66608L14.4446 8.64475C14.4632 8.64475 14.4786 8.63542 14.4966 8.63408C14.4374 8.74686 14.3625 8.85058 14.2739 8.94208L11.6879 11.5281C11.6242 11.5896 11.5735 11.6631 11.5385 11.7445C11.5036 11.8258 11.4852 11.9133 11.4844 12.0018C11.4836 12.0903 11.5005 12.1781 11.534 12.2601C11.5676 12.342 11.6171 12.4164 11.6796 12.479C11.7422 12.5416 11.8167 12.5911 11.8986 12.6246C11.9805 12.6582 12.0683 12.675 12.1568 12.6743C12.2454 12.6735 12.3328 12.6551 12.4142 12.6202C12.4955 12.5852 12.5691 12.5344 12.6306 12.4707L15.2166 9.88475C15.7165 9.38468 15.9973 8.70652 15.9973 7.99942C15.9973 7.29231 15.7165 6.61416 15.2166 6.11408H15.2192Z" fill="#EFEFEF"/>
<path d="M4.66667 14.6667H3.33333C2.8029 14.6667 2.29419 14.456 1.91912 14.0809C1.54405 13.7058 1.33333 13.1971 1.33333 12.6667V3.33333C1.33333 2.8029 1.54405 2.29419 1.91912 1.91912C2.29419 1.54405 2.8029 1.33333 3.33333 1.33333H4.66667C4.84348 1.33333 5.01305 1.2631 5.13807 1.13807C5.2631 1.01305 5.33333 0.843478 5.33333 0.666667C5.33333 0.489856 5.2631 0.320286 5.13807 0.195262C5.01305 0.0702379 4.84348 0 4.66667 0L3.33333 0C2.4496 0.00105857 1.60237 0.352588 0.97748 0.97748C0.352588 1.60237 0.00105857 2.4496 0 3.33333L0 12.6667C0.00105857 13.5504 0.352588 14.3976 0.97748 15.0225C1.60237 15.6474 2.4496 15.9989 3.33333 16H4.66667C4.84348 16 5.01305 15.9298 5.13807 15.8047C5.2631 15.6797 5.33333 15.5101 5.33333 15.3333C5.33333 15.1565 5.2631 14.987 5.13807 14.8619C5.01305 14.7369 4.84348 14.6667 4.66667 14.6667Z" fill="#EFEFEF"/>
</g>
<defs>
<clipPath id="clip0_19_17777">
<rect width="16" height="16" fill="white"/>
</clipPath>
</defs>
</svg>
