<svg width="8" height="16" viewBox="0 0 8 16" fill="none" xmlns="http://www.w3.org/2000/svg">
<path d="M0.666565 16C0.578827 16.0005 0.491852 15.9837 0.410627 15.9505C0.329402 15.9173 0.255525 15.8684 0.193232 15.8066C0.130746 15.7447 0.0811499 15.6709 0.0473042 15.5897C0.0134584 15.5084 -0.00396729 15.4213 -0.00396729 15.3333C-0.00396729 15.2453 0.0134584 15.1582 0.0473042 15.0769C0.0811499 14.9957 0.130746 14.9219 0.193232 14.86L5.6399 9.4133C6.01443 9.0383 6.22481 8.52997 6.22481 7.99997C6.22481 7.46997 6.01443 6.96164 5.6399 6.58664L0.193232 1.13998C0.0676958 1.01444 -0.00282955 0.844181 -0.00282955 0.666647C-0.00282955 0.489113 0.0676958 0.31885 0.193232 0.193314C0.318767 0.0677786 0.489031 -0.00274658 0.666565 -0.00274658C0.844099 -0.00274658 1.01436 0.0677786 1.1399 0.193314L6.58657 5.63997C6.89699 5.94961 7.14327 6.31745 7.31132 6.72242C7.47936 7.12738 7.56586 7.56152 7.56586 7.99997C7.56586 8.43842 7.47936 8.87256 7.31132 9.27753C7.14327 9.68249 6.89699 10.0503 6.58657 10.36L1.1399 15.8066C1.0776 15.8684 1.00373 15.9173 0.922503 15.9505C0.841278 15.9837 0.754303 16.0005 0.666565 16Z" fill="#EFEFEF"/>
</svg>
