<svg width="18" height="18" viewBox="0 0 18 18" fill="none" xmlns="http://www.w3.org/2000/svg">
<g clip-path="url(#clip0_953_9893)">
<path d="M17.4532 7.06414C16.7761 5.95543 15.9221 4.96508 14.9249 4.13239L17.0249 2.03239C17.1615 1.89093 17.2371 1.70148 17.2354 1.50484C17.2337 1.30819 17.1548 1.12008 17.0158 0.981022C16.8767 0.841966 16.6886 0.76309 16.492 0.761381C16.2953 0.759672 16.1059 0.835268 15.9644 0.971886L13.6807 3.25864C12.265 2.41775 10.6465 1.97948 8.99992 1.99114C4.35667 1.99114 1.71067 5.16964 0.546666 7.06414C0.187062 7.64577 -0.00341797 8.31607 -0.00341797 8.99989C-0.00341797 9.6837 0.187062 10.354 0.546666 10.9356C1.22373 12.0443 2.07778 13.0347 3.07492 13.8674L0.974916 15.9674C0.903284 16.0366 0.846147 16.1193 0.80684 16.2108C0.767534 16.3023 0.746844 16.4008 0.745979 16.5003C0.745113 16.5999 0.76409 16.6987 0.8018 16.7909C0.839511 16.883 0.895201 16.9668 0.96562 17.0372C1.03604 17.1076 1.11978 17.1633 1.21195 17.201C1.30412 17.2387 1.40288 17.2577 1.50247 17.2568C1.60205 17.256 1.70047 17.2353 1.79197 17.196C1.88347 17.1567 1.96623 17.0995 2.03542 17.0279L4.32442 14.7389C5.73837 15.5796 7.35492 16.0187 8.99992 16.0086C13.6432 16.0086 16.2892 12.8301 17.4532 10.9356C17.8128 10.354 18.0033 9.6837 18.0033 8.99989C18.0033 8.31607 17.8128 7.64577 17.4532 7.06414ZM1.82467 10.1504C1.61102 9.80467 1.49785 9.40629 1.49785 8.99989C1.49785 8.59348 1.61102 8.1951 1.82467 7.84939C2.82517 6.22489 5.08642 3.49114 8.99992 3.49114C10.2451 3.48416 11.4728 3.78426 12.5744 4.36489L11.0647 5.87464C10.3446 5.39659 9.48135 5.18238 8.62134 5.26837C7.76134 5.35436 6.95757 5.73524 6.34642 6.34639C5.73527 6.95754 5.35439 7.7613 5.2684 8.62131C5.18241 9.48132 5.39662 10.3446 5.87467 11.0646L4.14217 12.7971C3.22349 12.0544 2.43954 11.1591 1.82467 10.1504ZM11.2499 8.99989C11.2499 9.59662 11.0129 10.1689 10.5909 10.5909C10.169 11.0128 9.59665 11.2499 8.99992 11.2499C8.6658 11.2486 8.33632 11.1717 8.03617 11.0249L11.0249 8.03614C11.1717 8.33628 11.2486 8.66577 11.2499 8.99989ZM6.74992 8.99989C6.74992 8.40315 6.98697 7.83085 7.40893 7.4089C7.83088 6.98694 8.40318 6.74989 8.99992 6.74989C9.33403 6.75118 9.66352 6.8281 9.96367 6.97489L6.97492 9.96364C6.82813 9.66349 6.75121 9.334 6.74992 8.99989ZM16.1752 10.1504C15.1747 11.7749 12.9134 14.5086 8.99992 14.5086C7.75471 14.5156 6.52699 14.2155 5.42542 13.6349L6.93517 12.1251C7.65522 12.6032 8.51849 12.8174 9.37849 12.7314C10.2385 12.6454 11.0423 12.2645 11.6534 11.6534C12.2646 11.0422 12.6454 10.2385 12.7314 9.37846C12.8174 8.51846 12.6032 7.65519 12.1252 6.93514L13.8577 5.20264C14.7763 5.94535 15.5603 6.84067 16.1752 7.84939C16.3888 8.1951 16.502 8.59348 16.502 8.99989C16.502 9.40629 16.3888 9.80467 16.1752 10.1504Z" fill="#454545"/>
</g>
<defs>
<clipPath id="clip0_953_9893">
<rect width="18" height="18" fill="white"/>
</clipPath>
</defs>
</svg>
