<svg width="37" height="37" viewBox="0 0 37 37" fill="none" xmlns="http://www.w3.org/2000/svg">
<rect x="1.70558" y="2.10344" width="33.0702" height="33.1724" rx="16.5351" fill="#151515"/>
<rect x="1.70558" y="2.10344" width="33.0702" height="33.1724" rx="16.5351" stroke="#EFEFEF" stroke-width="2.55172"/>
<g clip-path="url(#clip0_975_8586)">
<path d="M23.5016 12.7356H23.1236L21.4981 10.6279C21.2886 10.3583 21.0205 10.14 20.7142 9.98936C20.4078 9.83876 20.0712 9.75984 19.7298 9.75861H16.854C16.5126 9.75984 16.176 9.83876 15.8696 9.98936C15.5632 10.14 15.2951 10.3583 15.0856 10.6279L13.4602 12.7356H13.0821C12.0955 12.7368 11.1497 13.1292 10.4521 13.8269C9.75446 14.5245 9.36202 15.4703 9.36084 16.4569V23.8994C9.36202 24.886 9.75446 25.8318 10.4521 26.5294C11.1497 27.2271 12.0955 27.6195 13.0821 27.6207H23.5016C24.4882 27.6195 25.4341 27.2271 26.1317 26.5294C26.8293 25.8318 27.2217 24.886 27.2229 23.8994V16.4569C27.2217 15.4703 26.8293 14.5245 26.1317 13.8269C25.4341 13.1292 24.4882 12.7368 23.5016 12.7356ZM16.2645 11.5374C16.3342 11.4474 16.4236 11.3744 16.5257 11.3241C16.6279 11.2738 16.7401 11.2475 16.854 11.2471H19.7298C19.8436 11.2476 19.9558 11.274 20.058 11.3243C20.1601 11.3746 20.2494 11.4474 20.3192 11.5374L21.2436 12.7356H15.3402L16.2645 11.5374ZM25.7344 23.8994C25.7344 24.4916 25.4992 25.0595 25.0804 25.4782C24.6617 25.8969 24.0938 26.1322 23.5016 26.1322H13.0821C12.4899 26.1322 11.922 25.8969 11.5033 25.4782C11.0846 25.0595 10.8493 24.4916 10.8493 23.8994V16.4569C10.8493 15.8647 11.0846 15.2968 11.5033 14.8781C11.922 14.4594 12.4899 14.2241 13.0821 14.2241H23.5016C24.0938 14.2241 24.6617 14.4594 25.0804 14.8781C25.4992 15.2968 25.7344 15.8647 25.7344 16.4569V23.8994Z" fill="#EFEFEF"/>
<path d="M18.2917 15.7126C17.4085 15.7126 16.5451 15.9745 15.8108 16.4652C15.0764 16.9558 14.5041 17.6533 14.1661 18.4692C13.8281 19.2852 13.7397 20.1831 13.912 21.0493C14.0843 21.9155 14.5096 22.7112 15.1341 23.3357C15.7586 23.9602 16.5543 24.3855 17.4205 24.5578C18.2867 24.7301 19.1846 24.6417 20.0006 24.3037C20.8165 23.9657 21.514 23.3934 22.0046 22.659C22.4953 21.9247 22.7572 21.0613 22.7572 20.1781C22.756 18.9941 22.2852 17.859 21.448 17.0218C20.6108 16.1846 19.4757 15.7138 18.2917 15.7126ZM18.2917 23.1551C17.7029 23.1551 17.1273 22.9805 16.6378 22.6534C16.1482 22.3263 15.7666 21.8613 15.5413 21.3174C15.316 20.7734 15.257 20.1748 15.3719 19.5973C15.4868 19.0198 15.7703 18.4894 16.1866 18.073C16.603 17.6567 17.1334 17.3732 17.7109 17.2583C18.2884 17.1434 18.887 17.2024 19.4309 17.4277C19.9749 17.653 20.4399 18.0346 20.767 18.5242C21.0941 19.0137 21.2687 19.5893 21.2687 20.1781C21.2687 20.9677 20.9551 21.7249 20.3968 22.2832C19.8385 22.8415 19.0812 23.1551 18.2917 23.1551Z" fill="#EFEFEF"/>
</g>
<defs>
<clipPath id="clip0_975_8586">
<rect width="17.8621" height="17.8621" fill="white" transform="translate(9.36084 9.75861)"/>
</clipPath>
</defs>
</svg>
