<svg width="32" height="32" viewBox="0 0 32 32" fill="none" xmlns="http://www.w3.org/2000/svg">
<path d="M2.66669 22.5333C2.66669 20.7875 2.66669 19.9145 3.05965 19.2733C3.27953 18.9145 3.58121 18.6128 3.94002 18.3929C4.58127 18 5.45419 18 7.20002 18H8.66669C11.1808 18 12.4379 18 13.219 18.7811C14 19.5621 14 20.8192 14 23.3333V24.8C14 26.5459 14 27.4188 13.6071 28.06C13.3872 28.4188 13.0855 28.7205 12.7267 28.9404C12.0854 29.3333 11.2125 29.3333 9.46669 29.3333C6.84794 29.3333 5.53857 29.3333 4.57669 28.7439C4.03847 28.4141 3.58595 27.9616 3.25613 27.4233" stroke="#EFEFEF" stroke-width="2" stroke-linecap="round"/>
<path d="M29.3333 9.46669C29.3333 11.2125 29.3333 12.0854 28.9404 12.7267C28.7205 13.0855 28.4188 13.3872 28.06 13.6071C27.4188 14 26.5459 14 24.8 14H23.3333C20.8192 14 19.5621 14 18.7811 13.219C18 12.4379 18 11.1808 18 8.66669V7.20002C18 5.45419 18 4.58127 18.3929 3.94002C18.6128 3.58121 18.9145 3.27953 19.2733 3.05965C19.9145 2.66669 20.7875 2.66669 22.5333 2.66669C25.1521 2.66669 26.4615 2.66669 27.4233 3.25613C27.9616 3.58595 28.4141 4.03847 28.7439 4.57669" stroke="#EFEFEF" stroke-width="2" stroke-linecap="round"/>
<path d="M22 8.33335C22 7.64614 22 7.30254 22.1721 7.05993C22.2329 6.97431 22.3076 6.89957 22.3932 6.83883C22.6359 6.66669 22.9795 6.66669 23.6667 6.66669C24.3539 6.66669 24.6975 6.66669 24.9401 6.83883C25.0257 6.89957 25.1004 6.97431 25.1612 7.05993C25.3333 7.30254 25.3333 7.64614 25.3333 8.33335C25.3333 9.02057 25.3333 9.36417 25.1612 9.60678C25.1004 9.69239 25.0257 9.76714 24.9401 9.82787C24.6975 10 24.3539 10 23.6667 10C22.9795 10 22.6359 10 22.3932 9.82787C22.3076 9.76714 22.2329 9.69239 22.1721 9.60678C22 9.36417 22 9.02057 22 8.33335Z" fill="#EFEFEF"/>
<path d="M17 29.3333C17 29.8856 17.4477 30.3333 18 30.3333C18.5523 30.3333 19 29.8856 19 29.3333H17ZM25.3333 17H22.6667V19H25.3333V17ZM17 25.3333V29.3333H19V25.3333H17ZM22.6667 17C21.7512 17 20.9893 16.9988 20.3747 17.0613C19.7433 17.1255 19.1576 17.2652 18.6296 17.618L19.7407 19.2809C19.8853 19.1843 20.104 19.0992 20.5771 19.0511C21.0669 19.0012 21.7096 19 22.6667 19V17ZM19 22.6667C19 21.7096 19.0012 21.0669 19.0511 20.5771C19.0992 20.104 19.1843 19.8853 19.2809 19.7407L17.618 18.6296C17.2652 19.1576 17.1255 19.7433 17.0613 20.3747C16.9988 20.9893 17 21.7512 17 22.6667H19ZM18.6296 17.618C18.2292 17.8855 17.8855 18.2292 17.618 18.6296L19.2809 19.7407C19.4025 19.5587 19.5587 19.4025 19.7407 19.2809L18.6296 17.618Z" fill="#EFEFEF"/>
<path d="M30.3334 18C30.3334 17.4477 29.8856 17 29.3334 17C28.7811 17 28.3334 17.4477 28.3334 18H30.3334ZM22.6667 30.3333H25.3334V28.3333H22.6667V30.3333ZM30.3334 22.6667V18H28.3334V22.6667H30.3334ZM25.3334 30.3333C25.941 30.3333 26.4467 30.3339 26.8606 30.3056C27.2834 30.2768 27.6827 30.2147 28.0699 30.0543L27.3046 28.2064C27.2016 28.2491 27.0454 28.2884 26.7244 28.3103C26.3944 28.3328 25.9683 28.3333 25.3334 28.3333V30.3333ZM28.3334 25.3333C28.3334 25.9683 28.3328 26.3944 28.3103 26.7244C28.2884 27.0453 28.2491 27.2016 28.2064 27.3045L30.0543 28.0699C30.2147 27.6827 30.2768 27.2833 30.3056 26.8605C30.3339 26.4467 30.3334 25.9409 30.3334 25.3333H28.3334ZM28.0699 30.0543C28.9683 29.6821 29.6822 28.9683 30.0543 28.0699L28.2064 27.3045C28.0374 27.7128 27.7128 28.0372 27.3046 28.2064L28.0699 30.0543Z" fill="#EFEFEF"/>
<path d="M2.66669 9.46669C2.66669 6.84794 2.66669 5.53857 3.25613 4.57669C3.58595 4.03847 4.03847 3.58595 4.57669 3.25613C5.53857 2.66669 6.84794 2.66669 9.46669 2.66669C11.2125 2.66669 12.0854 2.66669 12.7267 3.05965C13.0855 3.27953 13.3872 3.58121 13.6071 3.94002C14 4.58127 14 5.45419 14 7.20002V8.66669C14 11.1808 14 12.4379 13.219 13.219C12.4379 14 11.1808 14 8.66669 14H7.20002C5.45419 14 4.58127 14 3.94002 13.6071C3.58121 13.3872 3.27953 13.0855 3.05965 12.7267C2.66669 12.0854 2.66669 11.2125 2.66669 9.46669Z" stroke="#EFEFEF" stroke-width="2"/>
<path d="M6.66669 8.33335C6.66669 7.64614 6.66669 7.30254 6.83883 7.05993C6.89957 6.97431 6.97431 6.89957 7.05993 6.83883C7.30254 6.66669 7.64614 6.66669 8.33335 6.66669C9.02057 6.66669 9.36417 6.66669 9.60678 6.83883C9.69239 6.89957 9.76714 6.97431 9.82787 7.05993C10 7.30254 10 7.64614 10 8.33335C10 9.02057 10 9.36417 9.82787 9.60678C9.76714 9.69239 9.69239 9.76714 9.60678 9.82787C9.36417 10 9.02057 10 8.33335 10C7.64614 10 7.30254 10 7.05993 9.82787C6.97431 9.76714 6.89957 9.69239 6.83883 9.60678C6.66669 9.36417 6.66669 9.02057 6.66669 8.33335Z" fill="#EFEFEF"/>
<path d="M6.66669 23.6667C6.66669 22.9795 6.66669 22.6359 6.83883 22.3932C6.89957 22.3076 6.97431 22.2329 7.05993 22.1721C7.30254 22 7.64614 22 8.33335 22C9.02057 22 9.36417 22 9.60678 22.1721C9.69239 22.2329 9.76714 22.3076 9.82787 22.3932C10 22.6359 10 22.9795 10 23.6667C10 24.3539 10 24.6975 9.82787 24.9401C9.76714 25.0257 9.69239 25.1004 9.60678 25.1612C9.36417 25.3333 9.02057 25.3333 8.33335 25.3333C7.64614 25.3333 7.30254 25.3333 7.05993 25.1612C6.97431 25.1004 6.89957 25.0257 6.83883 24.9401C6.66669 24.6975 6.66669 24.3539 6.66669 23.6667Z" fill="#EFEFEF"/>
<path d="M21.3333 23.6666C21.3333 22.7304 21.3333 22.2622 21.558 21.9258C21.6553 21.7802 21.7802 21.6553 21.9258 21.558C22.2622 21.3333 22.7304 21.3333 23.6666 21.3333C24.6029 21.3333 25.071 21.3333 25.4074 21.558C25.553 21.6553 25.678 21.7802 25.7753 21.9258C26 22.2622 26 22.7304 26 23.6666C26 24.6029 26 25.071 25.7753 25.4074C25.678 25.553 25.553 25.678 25.4074 25.7753C25.071 26 24.6029 26 23.6666 26C22.7304 26 22.2622 26 21.9258 25.7753C21.7802 25.678 21.6553 25.553 21.558 25.4074C21.3333 25.071 21.3333 24.6029 21.3333 23.6666Z" fill="#EFEFEF"/>
</svg>
