<svg width="25" height="24" viewBox="0 0 25 24" fill="none" xmlns="http://www.w3.org/2000/svg">
<path d="M23.4999 5H20.9139L23.2069 2.707C23.3891 2.5184 23.4899 2.2658 23.4876 2.0036C23.4853 1.7414 23.3801 1.49059 23.1947 1.30518C23.0093 1.11977 22.7585 1.0146 22.4963 1.01233C22.2341 1.01005 21.9815 1.11084 21.7929 1.293L19.4999 3.586V1C19.4999 0.734784 19.3946 0.48043 19.207 0.292893C19.0195 0.105357 18.7651 0 18.4999 0C18.2347 0 17.9803 0.105357 17.7928 0.292893C17.6053 0.48043 17.4999 0.734784 17.4999 1V5.456C16.6814 4.58461 15.7152 3.86486 14.6459 3.33C13.8952 2.99886 13.0568 2.92204 12.2584 3.11122C11.46 3.3004 10.7453 3.74522 10.2229 4.378C8.46491 6.136 3.56491 15.121 0.799914 20.319C0.556904 20.792 0.470304 21.3298 0.552592 21.8552C0.63488 22.3805 0.881806 22.8661 1.2578 23.2421C1.63379 23.6181 2.11943 23.865 2.64475 23.9473C3.17008 24.0296 3.70796 23.943 4.18091 23.7C9.38091 20.936 18.3639 16.035 20.1219 14.277C20.7545 13.7548 21.1993 13.0402 21.3886 12.2421C21.578 11.4439 21.5015 10.6057 21.1709 9.855C20.6354 8.78564 19.9153 7.81916 19.0439 7H23.4999C23.7651 7 24.0195 6.89464 24.207 6.70711C24.3946 6.51957 24.4999 6.26522 24.4999 6C24.4999 5.73478 24.3946 5.48043 24.207 5.29289C24.0195 5.10536 23.7651 5 23.4999 5ZM18.7079 12.863C17.993 13.4747 17.2257 14.0225 16.4149 14.5L14.2069 12.293C14.0183 12.1108 13.7657 12.01 13.5035 12.0123C13.2413 12.0146 12.9905 12.1198 12.8051 12.3052C12.6197 12.4906 12.5145 12.7414 12.5122 13.0036C12.51 13.2658 12.6108 13.5184 12.7929 13.707L14.6629 15.576C11.9169 17.219 7.97391 19.418 3.24191 21.934C3.14739 21.9841 3.03928 22.0026 2.93347 21.9868C2.82766 21.9709 2.72973 21.9215 2.65407 21.8458C2.57842 21.7702 2.52902 21.6723 2.51315 21.5664C2.49729 21.4606 2.51578 21.3525 2.56591 21.258C4.08791 18.397 5.48891 15.834 6.72591 13.64L8.79291 15.707C8.98152 15.8892 9.23412 15.99 9.49632 15.9877C9.75851 15.9854 10.0093 15.8802 10.1947 15.6948C10.3801 15.5094 10.4853 15.2586 10.4876 14.9964C10.4899 14.7342 10.3891 14.4816 10.2069 14.293L7.75091 11.837C8.84091 9.948 9.75691 8.437 10.4599 7.374L12.7929 9.707C12.9815 9.88916 13.2341 9.98995 13.4963 9.98767C13.7585 9.9854 14.0093 9.88023 14.1947 9.69482C14.3801 9.50941 14.4853 9.2586 14.4876 8.9964C14.4899 8.7342 14.3891 8.4816 14.2069 8.293L11.6739 5.76C12.5209 4.971 13.0399 4.838 13.8569 5.168C14.991 5.8152 16.0079 6.64887 16.8649 7.634C17.8504 8.49132 18.6844 9.50856 19.3319 10.643C19.5809 11.223 19.6779 11.894 18.7079 12.863Z" fill="#151515"/>
</svg>
