<svg width="14" height="15" viewBox="0 0 14 15" fill="none" xmlns="http://www.w3.org/2000/svg">
<g clip-path="url(#clip0_875_11056)">
<path d="M13.0194 3.08482L4.95828 11.1453C4.90408 11.1997 4.83968 11.2429 4.76875 11.2724C4.69783 11.3018 4.62179 11.317 4.54499 11.317C4.46819 11.317 4.39215 11.3018 4.32123 11.2724C4.2503 11.2429 4.1859 11.1997 4.1317 11.1453L1.01437 8.02506C0.960168 7.97065 0.89576 7.92748 0.824837 7.89802C0.753914 7.86856 0.677872 7.8534 0.601074 7.8534C0.524276 7.8534 0.448233 7.86856 0.37731 7.89802C0.306387 7.92748 0.241979 7.97065 0.187782 8.02506C0.133371 8.07926 0.0901966 8.14367 0.0607373 8.21459C0.031278 8.28552 0.0161133 8.36156 0.0161133 8.43836C0.0161133 8.51515 0.031278 8.5912 0.0607373 8.66212C0.0901966 8.73304 0.133371 8.79745 0.187782 8.85165L3.30628 11.9696C3.63525 12.2979 4.08106 12.4823 4.54587 12.4823C5.01067 12.4823 5.45648 12.2979 5.78545 11.9696L13.8459 3.91082C13.9003 3.85663 13.9434 3.79226 13.9728 3.72139C14.0022 3.65052 14.0173 3.57454 14.0173 3.49782C14.0173 3.42109 14.0022 3.34511 13.9728 3.27424C13.9434 3.20337 13.9003 3.139 13.8459 3.08482C13.7918 3.0304 13.7273 2.98723 13.6564 2.95777C13.5855 2.92831 13.5095 2.91315 13.4327 2.91315C13.3559 2.91315 13.2798 2.92831 13.2089 2.95777C13.138 2.98723 13.0736 3.0304 13.0194 3.08482Z" fill="#EFEFEF"/>
</g>
<defs>
<clipPath id="clip0_875_11056">
<rect width="14" height="14" fill="white" transform="translate(0 0.5)"/>
</clipPath>
</defs>
</svg>
