<svg width="14" height="15" viewBox="0 0 14 15" fill="none" xmlns="http://www.w3.org/2000/svg">
<g clip-path="url(#clip0_875_11145)">
<path d="M13.8292 0.671158C13.7198 0.5618 13.5715 0.500366 13.4168 0.500366C13.2621 0.500366 13.1138 0.5618 13.0044 0.671158L7.00012 6.67541L0.99587 0.671158C0.886479 0.5618 0.738132 0.500366 0.583453 0.500366C0.428774 0.500366 0.280427 0.5618 0.171036 0.671158C0.0616781 0.780549 0.000244141 0.928896 0.000244141 1.08358C0.000244141 1.23825 0.0616781 1.3866 0.171036 1.49599L6.17529 7.50024L0.171036 13.5045C0.0616781 13.6139 0.000244141 13.7622 0.000244141 13.9169C0.000244141 14.0716 0.0616781 14.2199 0.171036 14.3293C0.280427 14.4387 0.428774 14.5001 0.583453 14.5001C0.738132 14.5001 0.886479 14.4387 0.99587 14.3293L7.00012 8.32508L13.0044 14.3293C13.1138 14.4387 13.2621 14.5001 13.4168 14.5001C13.5715 14.5001 13.7198 14.4387 13.8292 14.3293C13.9386 14.2199 14 14.0716 14 13.9169C14 13.7622 13.9386 13.6139 13.8292 13.5045L7.82495 7.50024L13.8292 1.49599C13.9386 1.3866 14 1.23825 14 1.08358C14 0.928896 13.9386 0.780549 13.8292 0.671158Z" fill="#EFEFEF"/>
</g>
<defs>
<clipPath id="clip0_875_11145">
<rect width="14" height="14" fill="white" transform="translate(0 0.5)"/>
</clipPath>
</defs>
</svg>
