<svg width="25" height="24" viewBox="0 0 25 24" fill="none" xmlns="http://www.w3.org/2000/svg">
<g clip-path="url(#clip0_1563_779)">
<path d="M12.3279 16.462C10.9774 14.6174 9.7465 12.6881 8.64291 10.686C10.1649 7.709 11.4999 4.189 11.4999 1C11.4999 0.734784 11.3946 0.48043 11.207 0.292893C11.0195 0.105357 10.7651 0 10.4999 0C10.2347 0 9.98034 0.105357 9.7928 0.292893C9.60526 0.48043 9.49991 0.734784 9.49991 1C9.35768 3.58859 8.67827 6.11924 7.50491 8.431C6.32837 6.11989 5.64557 3.58926 5.49991 1C5.49991 0.734784 5.39455 0.48043 5.20701 0.292893C5.01948 0.105357 4.76512 0 4.49991 0C4.23469 0 3.98034 0.105357 3.7928 0.292893C3.60526 0.48043 3.49991 0.734784 3.49991 1C3.49991 4.174 4.84191 7.7 6.36791 10.685C5.2682 12.692 4.0337 14.622 2.67291 16.462C2.14852 16.7292 1.68981 17.1091 1.3297 17.5746C0.969591 18.0401 0.717026 18.5796 0.590142 19.1542C0.463258 19.7289 0.465203 20.3246 0.595838 20.8984C0.726472 21.4722 0.982555 22.01 1.3457 22.4731C1.70884 22.9363 2.17002 23.3132 2.69614 23.577C3.22226 23.8407 3.80025 23.9847 4.3886 23.9985C4.97696 24.0124 5.56108 23.8957 6.09902 23.6571C6.63696 23.4184 7.11538 23.0635 7.49991 22.618C7.88467 23.0624 8.36298 23.4161 8.90055 23.6539C9.43812 23.8917 10.0216 24.0076 10.6093 23.9933C11.1969 23.979 11.7741 23.8349 12.2995 23.5714C12.8249 23.3078 13.2854 22.9312 13.6482 22.4687C14.0109 22.0062 14.2669 21.4691 14.3976 20.8961C14.5284 20.323 14.5308 19.7281 14.4046 19.154C14.2784 18.5799 14.0268 18.0408 13.6678 17.5754C13.3087 17.11 12.8512 16.7298 12.3279 16.462ZM4.49991 22C4.10434 22 3.71766 21.8827 3.38877 21.6629C3.05987 21.4432 2.80352 21.1308 2.65215 20.7654C2.50077 20.3999 2.46116 19.9978 2.53834 19.6098C2.61551 19.2219 2.80599 18.8655 3.08569 18.5858C3.3654 18.3061 3.72176 18.1156 4.10973 18.0384C4.49769 17.9613 4.89982 18.0009 5.26527 18.1522C5.63073 18.3036 5.94308 18.56 6.16285 18.8889C6.38261 19.2178 6.49991 19.6044 6.49991 20C6.49991 20.5304 6.28919 21.0391 5.91412 21.4142C5.53905 21.7893 5.03034 22 4.49991 22ZM5.38291 16.105C5.96791 15.261 6.71991 14.114 7.50491 12.763C8.28891 14.113 9.03891 15.263 9.62191 16.104C8.79674 16.2937 8.05347 16.7413 7.49991 17.382C6.94729 16.7429 6.20601 16.2957 5.38291 16.105ZM10.4999 22C10.1043 22 9.71766 21.8827 9.38877 21.6629C9.05987 21.4432 8.80352 21.1308 8.65215 20.7654C8.50077 20.3999 8.46117 19.9978 8.53834 19.6098C8.61551 19.2219 8.80599 18.8655 9.08569 18.5858C9.3654 18.3061 9.72176 18.1156 10.1097 18.0384C10.4977 17.9613 10.8998 18.0009 11.2653 18.1522C11.6307 18.3036 11.9431 18.56 12.1628 18.8889C12.3826 19.2178 12.4999 19.6044 12.4999 20C12.4999 20.5304 12.2892 21.0391 11.9141 21.4142C11.539 21.7893 11.0303 22 10.4999 22ZM18.4999 6V8H23.4999C23.7651 8 24.0195 8.10536 24.207 8.29289C24.3946 8.48043 24.4999 8.73478 24.4999 9C24.4999 9.26522 24.3946 9.51957 24.207 9.70711C24.0195 9.89464 23.7651 10 23.4999 10H18.4999V12H23.4999C23.7651 12 24.0195 12.1054 24.207 12.2929C24.3946 12.4804 24.4999 12.7348 24.4999 13C24.4999 13.2652 24.3946 13.5196 24.207 13.7071C24.0195 13.8946 23.7651 14 23.4999 14H18.4999V16H23.4999C23.7651 16 24.0195 16.1054 24.207 16.2929C24.3946 16.4804 24.4999 16.7348 24.4999 17C24.4999 17.2652 24.3946 17.5196 24.207 17.7071C24.0195 17.8946 23.7651 18 23.4999 18H18.4999V23C18.4999 23.2652 18.3946 23.5196 18.207 23.7071C18.0195 23.8946 17.7651 24 17.4999 24C17.2347 24 16.9803 23.8946 16.7928 23.7071C16.6053 23.5196 16.4999 23.2652 16.4999 23V5C16.5015 3.67441 17.0288 2.40356 17.9661 1.46622C18.9035 0.528882 20.1743 0.00158786 21.4999 0L23.4999 0C23.7651 0 24.0195 0.105357 24.207 0.292893C24.3946 0.48043 24.4999 0.734784 24.4999 1C24.4999 1.26522 24.3946 1.51957 24.207 1.70711C24.0195 1.89464 23.7651 2 23.4999 2H21.4999C20.8816 2.00256 20.2793 2.19608 19.7752 2.55409C19.2711 2.91209 18.89 3.41709 18.6839 4H23.4999C23.7651 4 24.0195 4.10536 24.207 4.29289C24.3946 4.48043 24.4999 4.73478 24.4999 5C24.4999 5.26522 24.3946 5.51957 24.207 5.70711C24.0195 5.89464 23.7651 6 23.4999 6H18.4999Z" fill="#151515"/>
</g>
<defs>
<clipPath id="clip0_1563_779">
<rect width="24" height="24" fill="white" transform="translate(0.5)"/>
</clipPath>
</defs>
</svg>
