<svg width="16" height="16" viewBox="0 0 16 16" fill="none" xmlns="http://www.w3.org/2000/svg">
<g clip-path="url(#clip0_1276_847)">
<path d="M11.3334 16C11.4212 16.0005 11.5081 15.9837 11.5894 15.9505C11.6706 15.9173 11.7445 15.8684 11.8068 15.8066C11.8693 15.7447 11.9189 15.6709 11.9527 15.5897C11.9865 15.5084 12.004 15.4213 12.004 15.3333C12.004 15.2453 11.9865 15.1582 11.9527 15.0769C11.9189 14.9957 11.8693 14.9219 11.8068 14.86L6.3601 9.4133C5.98557 9.0383 5.77519 8.52997 5.77519 7.99997C5.77519 7.46997 5.98557 6.96164 6.3601 6.58664L11.8068 1.13998C11.9323 1.01444 12.0028 0.844181 12.0028 0.666647C12.0028 0.489113 11.9323 0.31885 11.8068 0.193314C11.6812 0.0677786 11.511 -0.00274658 11.3334 -0.00274658C11.1559 -0.00274658 10.9856 0.0677786 10.8601 0.193314L5.41343 5.63997C5.10301 5.94961 4.85673 6.31745 4.68868 6.72242C4.52064 7.12738 4.43414 7.56152 4.43414 7.99997C4.43414 8.43842 4.52064 8.87256 4.68868 9.27753C4.85673 9.68249 5.10301 10.0503 5.41343 10.36L10.8601 15.8066C10.9224 15.8684 10.9963 15.9173 11.0775 15.9505C11.1587 15.9837 11.2457 16.0005 11.3334 16Z" fill="#EFEFEF"/>
</g>
<defs>
<clipPath id="clip0_1276_847">
<rect width="16" height="16" fill="white" transform="matrix(-1 0 0 1 16 0)"/>
</clipPath>
</defs>
</svg>
