<svg width="16" height="16" viewBox="0 0 16 16" fill="none" xmlns="http://www.w3.org/2000/svg">
<g clip-path="url(#clip0_1556_491)">
<path d="M9.23001 11.5113L7.05535 13.686C6.42396 14.3005 5.57602 14.6417 4.69498 14.6358C3.81394 14.6299 2.97065 14.2773 2.34755 13.6544C1.72446 13.0315 1.37168 12.1883 1.36552 11.3073C1.35937 10.4262 1.70035 9.57819 2.31468 8.94663L4.48935 6.76997C4.61435 6.64487 4.68454 6.47525 4.68448 6.2984C4.68442 6.12155 4.61411 5.95198 4.48901 5.82697C4.36392 5.70197 4.19429 5.63177 4.01744 5.63184C3.8406 5.6319 3.67102 5.70221 3.54601 5.8273L1.37201 8.00397C0.493528 8.88289 0.00017586 10.0748 0.00048843 11.3175C0.000801 12.5601 0.494753 13.7518 1.37368 14.6303C2.25261 15.5088 3.44451 16.0021 4.68719 16.0018C5.92987 16.0015 7.12153 15.5075 8.00001 14.6286L10.1747 12.454C10.2961 12.3282 10.3633 12.1598 10.3618 11.985C10.3603 11.8102 10.2902 11.643 10.1666 11.5194C10.043 11.3958 9.87575 11.3257 9.70095 11.3242C9.52615 11.3227 9.35775 11.3899 9.23201 11.5113H9.23001Z" fill="#454545"/>
<path d="M14.6294 1.37426C14.1956 0.93747 13.6794 0.591113 13.1108 0.355258C12.5422 0.119403 11.9324 -0.00126016 11.3168 0.000260568C10.7015 -0.00137392 10.092 0.118979 9.52347 0.354361C8.95498 0.589744 8.4388 0.935485 8.00476 1.37159L5.82675 3.54693C5.70166 3.67193 5.63135 3.84151 5.63129 4.01836C5.63122 4.19521 5.70142 4.36483 5.82642 4.48993C5.95143 4.61502 6.12101 4.68533 6.29785 4.6854C6.4747 4.68546 6.64433 4.61527 6.76942 4.49026L8.94609 2.31559C9.25646 2.00336 9.62568 1.7558 10.0324 1.58723C10.4391 1.41867 10.8752 1.33246 11.3154 1.33359C11.9783 1.33381 12.6262 1.53055 13.1772 1.89893C13.7283 2.26731 14.1577 2.79079 14.4113 3.40321C14.6649 4.01562 14.7312 4.68947 14.6019 5.33958C14.4726 5.98968 14.1534 6.58685 13.6848 7.05559L11.5101 9.23026C11.385 9.35536 11.3147 9.52502 11.3147 9.70193C11.3147 9.87884 11.385 10.0485 11.5101 10.1736C11.6352 10.2987 11.8048 10.369 11.9818 10.369C12.1587 10.369 12.3283 10.2987 12.4534 10.1736L14.6281 8.00026C15.5055 7.12099 15.9983 5.92966 15.9985 4.68754C15.9988 3.44541 15.5064 2.25388 14.6294 1.37426Z" fill="#454545"/>
<path d="M9.52878 5.52875L5.52878 9.52875C5.46511 9.59024 5.41432 9.66381 5.37938 9.74514C5.34444 9.82648 5.32605 9.91396 5.32528 10.0025C5.32451 10.091 5.34138 10.1788 5.3749 10.2607C5.40842 10.3426 5.45792 10.4171 5.52052 10.4797C5.58311 10.5423 5.65755 10.5918 5.73948 10.6253C5.82141 10.6588 5.9092 10.6757 5.99772 10.6749C6.08624 10.6741 6.17372 10.6558 6.25505 10.6208C6.33639 10.5859 6.40995 10.5351 6.47145 10.4714L10.4714 6.47142C10.5929 6.34568 10.6601 6.17728 10.6586 6.00249C10.657 5.82769 10.5869 5.66048 10.4633 5.53688C10.3397 5.41327 10.1725 5.34316 9.99772 5.34164C9.82292 5.34012 9.65452 5.40732 9.52878 5.52875Z" fill="#454545"/>
</g>
<defs>
<clipPath id="clip0_1556_491">
<rect width="16" height="16" fill="white"/>
</clipPath>
</defs>
</svg>
