<svg width="16" height="10" viewBox="0 0 16 10" fill="none" xmlns="http://www.w3.org/2000/svg">
<path d="M0.58686 6.39339L3.16686 9.00005C3.22884 9.06254 3.30257 9.11214 3.38381 9.14598C3.46505 9.17983 3.55219 9.19725 3.64019 9.19725C3.7282 9.19725 3.81534 9.17983 3.89658 9.14598C3.97782 9.11214 4.05155 9.06254 4.11353 9.00005C4.17601 8.93808 4.22561 8.86434 4.25945 8.78311C4.2933 8.70187 4.31073 8.61473 4.31073 8.52672C4.31073 8.43871 4.2933 8.35158 4.25945 8.27034C4.22561 8.1891 4.17601 8.11536 4.11353 8.05339L1.74019 5.66672H15.3335C15.5103 5.66672 15.6799 5.59648 15.8049 5.47146C15.93 5.34644 16.0002 5.17687 16.0002 5.00006C16.0002 4.82324 15.93 4.65367 15.8049 4.52865C15.6799 4.40363 15.5103 4.33339 15.3335 4.33339H1.70019L4.11353 1.92006C4.23172 1.79607 4.29765 1.63135 4.29765 1.46006C4.29765 1.28876 4.23172 1.12404 4.11353 1.00006C4.05155 0.93757 3.97782 0.887973 3.89658 0.854128C3.81534 0.820282 3.7282 0.802856 3.64019 0.802856C3.55219 0.802856 3.46505 0.820282 3.38381 0.854128C3.30257 0.887973 3.22884 0.93757 3.16686 1.00006L0.58686 3.56672C0.212325 3.94172 0.00195313 4.45005 0.00195312 4.98006C0.00195312 5.51006 0.212325 6.01839 0.58686 6.39339V6.39339Z" fill="#151515"/>
</svg>
