<svg width="24" height="14" viewBox="0 0 24 14" fill="none" xmlns="http://www.w3.org/2000/svg">
<path d="M0.880046 9.08999L4.75005 13C4.84301 13.0937 4.95361 13.1681 5.07547 13.2189C5.19733 13.2697 5.32803 13.2958 5.46005 13.2958C5.59206 13.2958 5.72276 13.2697 5.84462 13.2189C5.96648 13.1681 6.07708 13.0937 6.17005 13C6.26377 12.907 6.33817 12.7964 6.38894 12.6746C6.43971 12.5527 6.46584 12.422 6.46584 12.29C6.46584 12.158 6.43971 12.0273 6.38894 11.9054C6.33817 11.7836 6.26377 11.673 6.17005 11.58L2.61005 7.99999H23C23.2653 7.99999 23.5196 7.89463 23.7072 7.7071C23.8947 7.51956 24 7.26521 24 6.99999C24 6.73478 23.8947 6.48042 23.7072 6.29288C23.5196 6.10535 23.2653 5.99999 23 5.99999H2.55005L6.17005 2.37999C6.34734 2.19402 6.44624 1.94693 6.44624 1.68999C6.44624 1.43305 6.34734 1.18597 6.17005 0.999991C6.07708 0.906263 5.96648 0.831868 5.84462 0.7811C5.72276 0.730331 5.59206 0.704193 5.46005 0.704193C5.32803 0.704193 5.19733 0.730331 5.07547 0.7811C4.95361 0.831868 4.84301 0.906263 4.75005 0.999991L0.880046 4.84999C0.318244 5.41249 0.00268555 6.17499 0.00268555 6.96999C0.00268555 7.76499 0.318244 8.52749 0.880046 9.08999Z" fill="#038168"/>
</svg>
