<svg width="25" height="24" viewBox="0 0 25 24" fill="none" xmlns="http://www.w3.org/2000/svg">
<path d="M9.17 14H4.5C3.4 14 2.5 14.9 2.5 16V22H9.17V14Z" stroke="#454545" stroke-width="1.5" stroke-miterlimit="10" stroke-linecap="round" stroke-linejoin="round"/>
<path d="M15.83 12C15.83 10.9 14.93 10 13.83 10H11.16C10.06 10 9.16 10.9 9.16 12V22H15.83V16" stroke="#454545" stroke-width="1.5" stroke-miterlimit="10" stroke-linecap="round" stroke-linejoin="round"/>
<path d="M20.5 17H15.83V22H22.5V19C22.5 17.9 21.6 17 20.5 17Z" stroke="#454545" stroke-width="1.5" stroke-miterlimit="10" stroke-linecap="round" stroke-linejoin="round"/>
<path d="M13.02 2.07001L13.55 3.13C13.62 3.28 13.81 3.42 13.97 3.44L14.93 3.60001C15.54 3.70001 15.69 4.14999 15.25 4.57999L14.5 5.32999C14.37 5.45999 14.3 5.69999 14.34 5.86999L14.55 6.79001C14.72 7.52001 14.33 7.80001 13.69 7.42001L12.79 6.89001C12.63 6.79001 12.36 6.79001 12.2 6.89001L11.3 7.42001C10.66 7.80001 10.27 7.52001 10.44 6.79001L10.65 5.86999C10.69 5.69999 10.62 5.44999 10.49 5.32999L9.74999 4.59C9.30999 4.15 9.44999 3.70998 10.07 3.60998L11.03 3.45001C11.19 3.42001 11.38 3.28001 11.45 3.14001L11.98 2.07999C12.27 1.49999 12.73 1.50001 13.02 2.07001Z" stroke="#454545" stroke-width="1.5" stroke-linecap="round" stroke-linejoin="round"/>
</svg>
