<svg width="25" height="24" viewBox="0 0 25 24" fill="none" xmlns="http://www.w3.org/2000/svg">
<path d="M10.93 2.42C11.9 1.86 13.1 1.86 14.08 2.42L20.02 5.84999C20.99 6.40999 21.59 7.45003 21.59 8.58003V15.42C21.59 16.54 20.99 17.58 20.02 18.15L14.08 21.58C13.11 22.14 11.91 22.14 10.93 21.58L4.98998 18.15C4.01998 17.59 3.41998 16.55 3.41998 15.42V8.58003C3.41998 7.46003 4.01998 6.41999 4.98998 5.84999L6.88998 4.75002" stroke="#454545" stroke-width="1.5" stroke-linecap="round" stroke-linejoin="round"/>
<path d="M12.5 11C13.7868 11 14.83 9.95681 14.83 8.66998C14.83 7.38316 13.7868 6.34003 12.5 6.34003C11.2132 6.34003 10.17 7.38316 10.17 8.66998C10.17 9.95681 11.2132 11 12.5 11Z" stroke="#454545" stroke-width="1.5" stroke-linecap="round" stroke-linejoin="round"/>
<path d="M16.5 16.66C16.5 14.86 14.71 13.4 12.5 13.4C10.29 13.4 8.5 14.86 8.5 16.66" stroke="#454545" stroke-width="1.5" stroke-linecap="round" stroke-linejoin="round"/>
</svg>
